<mxfile host="www.draw.io" modified="2019-10-21T11:53:51.823Z" agent="Mozilla/5.0 (Macintosh; Intel Mac OS X 10_14_6) AppleWebKit/605.1.15 (KHTML, like Gecko) Version/13.0.2 Safari/605.1.15" etag="xZfvcKG79AkA5dvTZvGx" version="12.1.3" type="github" pages="1">
  <diagram id="ot7VbqEVnPVm4FlHw6yX" name="Page-1">
    <mxGraphModel dx="1553" dy="948" grid="0" gridSize="10" guides="1" tooltips="1" connect="1" arrows="1" fold="1" page="1" pageScale="1" pageWidth="3300" pageHeight="4681" math="0" shadow="0">
      <root>
        <mxCell id="0"/>
        <mxCell id="1" parent="0"/>
        <mxCell id="wcz-8A4uhaqFpy4rLhZc-134" value="" style="rounded=0;whiteSpace=wrap;html=1;fillColor=#e1d5e7;strokeColor=#9673a6;" parent="1" vertex="1">
          <mxGeometry x="526.5" y="313.5" width="170" height="300" as="geometry"/>
        </mxCell>
        <mxCell id="wcz-8A4uhaqFpy4rLhZc-1" value="" style="rounded=0;whiteSpace=wrap;html=1;strokeColor=#6c8ebf;strokeWidth=1;fillColor=#dae8fc;fontSize=12;align=center;" parent="1" vertex="1">
          <mxGeometry x="1018" y="309" width="642" height="328" as="geometry"/>
        </mxCell>
        <mxCell id="wcz-8A4uhaqFpy4rLhZc-3" value="" style="rounded=0;whiteSpace=wrap;html=1;strokeColor=#666666;fillColor=#f5f5f5;fontSize=12;align=center;fontColor=#333333;" parent="1" vertex="1">
          <mxGeometry x="767.5" y="308.5" width="170" height="310" as="geometry"/>
        </mxCell>
        <mxCell id="wcz-8A4uhaqFpy4rLhZc-10" value="" style="shape=image;html=1;verticalAlign=top;verticalLabelPosition=bottom;labelBackgroundColor=#ffffff;imageAspect=0;aspect=fixed;image=https://cdn4.iconfinder.com/data/icons/VISTA/networking/png/128/firewall.png;strokeColor=#6881B3;fillColor=#99CCFF;fontSize=12;align=center;" parent="1" vertex="1">
          <mxGeometry x="714.5" y="463.5" width="40" height="40" as="geometry"/>
        </mxCell>
        <mxCell id="wcz-8A4uhaqFpy4rLhZc-11" value="" style="endArrow=none;html=1;fontSize=12;entryX=0;entryY=0.5;entryDx=0;entryDy=0;exitX=1;exitY=0.25;exitDx=0;exitDy=0;strokeColor=#6881B3;" parent="1" source="wcz-8A4uhaqFpy4rLhZc-144" target="wcz-8A4uhaqFpy4rLhZc-10" edge="1">
          <mxGeometry width="50" height="50" relative="1" as="geometry">
            <mxPoint x="674.9199999999998" y="483.26199999999994" as="sourcePoint"/>
            <mxPoint x="731.5" y="520.5" as="targetPoint"/>
          </mxGeometry>
        </mxCell>
        <mxCell id="wcz-8A4uhaqFpy4rLhZc-12" value="" style="shadow=0;dashed=0;html=1;labelPosition=center;verticalLabelPosition=bottom;verticalAlign=top;align=center;outlineConnect=0;shape=mxgraph.veeam.3d.proxy_appliance;direction=east;" parent="1" vertex="1">
          <mxGeometry x="791.5" y="456.5" width="46" height="44.5625" as="geometry"/>
        </mxCell>
        <mxCell id="wcz-8A4uhaqFpy4rLhZc-13" value="&lt;font style=&quot;font-size: 15px&quot;&gt;DMZ区&lt;/font&gt;" style="text;html=1;resizable=0;points=[];autosize=1;align=center;verticalAlign=top;spacingTop=-4;fontSize=12;" parent="1" vertex="1">
          <mxGeometry x="822.5" y="318.5" width="58" height="15" as="geometry"/>
        </mxCell>
        <mxCell id="wcz-8A4uhaqFpy4rLhZc-14" value="" style="endArrow=none;html=1;strokeColor=#6881B3;strokeWidth=1;fontSize=12;exitX=1;exitY=0.5;exitDx=0;exitDy=0;entryX=0.512;entryY=0.583;entryDx=0;entryDy=0;entryPerimeter=0;" parent="1" source="wcz-8A4uhaqFpy4rLhZc-10" target="wcz-8A4uhaqFpy4rLhZc-12" edge="1">
          <mxGeometry width="50" height="50" relative="1" as="geometry">
            <mxPoint x="707.5" y="473.5" as="sourcePoint"/>
            <mxPoint x="817.5" y="400.5" as="targetPoint"/>
          </mxGeometry>
        </mxCell>
        <mxCell id="wcz-8A4uhaqFpy4rLhZc-15" value="&lt;font style=&quot;font-size: 15px&quot;&gt;互联网区&lt;/font&gt;" style="text;html=1;resizable=0;points=[];autosize=1;align=left;verticalAlign=top;spacingTop=-4;fontSize=12;" parent="1" vertex="1">
          <mxGeometry x="1296" y="318.5" width="70" height="15" as="geometry"/>
        </mxCell>
        <mxCell id="wcz-8A4uhaqFpy4rLhZc-16" value="" style="shape=image;html=1;verticalAlign=top;verticalLabelPosition=bottom;labelBackgroundColor=#ffffff;imageAspect=0;aspect=fixed;image=https://cdn4.iconfinder.com/data/icons/VISTA/networking/png/128/firewall.png;strokeColor=#6881B3;fillColor=#99CCFF;fontSize=12;align=center;" parent="1" vertex="1">
          <mxGeometry x="964.5" y="460.5" width="40" height="40" as="geometry"/>
        </mxCell>
        <mxCell id="wcz-8A4uhaqFpy4rLhZc-17" value="" style="endArrow=none;html=1;strokeColor=#6881B3;strokeWidth=1;fontSize=12;exitX=1;exitY=0.5;exitDx=0;exitDy=0;entryX=0;entryY=0.25;entryDx=0;entryDy=0;" parent="1" source="wcz-8A4uhaqFpy4rLhZc-72" target="wcz-8A4uhaqFpy4rLhZc-16" edge="1">
          <mxGeometry width="50" height="50" relative="1" as="geometry">
            <mxPoint x="890.9000000000001" y="485.6199999999999" as="sourcePoint"/>
            <mxPoint x="1027.5" y="530.5" as="targetPoint"/>
          </mxGeometry>
        </mxCell>
        <mxCell id="wcz-8A4uhaqFpy4rLhZc-18" value="" style="endArrow=none;html=1;strokeColor=#6881B3;strokeWidth=1;fontSize=12;entryX=0.001;entryY=0.933;entryDx=0;entryDy=0;entryPerimeter=0;" parent="1" source="wcz-8A4uhaqFpy4rLhZc-16" edge="1" target="f2JPj_Oiv7TSIDXI8G9g-131">
          <mxGeometry width="50" height="50" relative="1" as="geometry">
            <mxPoint x="973.5" y="560.5" as="sourcePoint"/>
            <mxPoint x="1039.5" y="478.5" as="targetPoint"/>
          </mxGeometry>
        </mxCell>
        <mxCell id="wcz-8A4uhaqFpy4rLhZc-19" value="外联前置&lt;br style=&quot;font-size: 10px&quot;&gt;堡垒机" style="text;html=1;resizable=0;points=[];autosize=1;align=center;verticalAlign=top;spacingTop=-4;fontSize=10;" parent="1" vertex="1">
          <mxGeometry x="866.5" y="433.5" width="50" height="24" as="geometry"/>
        </mxCell>
        <mxCell id="wcz-8A4uhaqFpy4rLhZc-24" value="" style="rounded=0;whiteSpace=wrap;html=1;strokeColor=#6c8ebf;strokeWidth=1;fillColor=#dae8fc;fontSize=8;align=center;" parent="1" vertex="1">
          <mxGeometry x="1434.5" y="703.3529411764706" width="170" height="310" as="geometry"/>
        </mxCell>
        <mxCell id="wcz-8A4uhaqFpy4rLhZc-25" value="&lt;font style=&quot;font-size: 15px&quot;&gt;AG区&lt;/font&gt;" style="text;html=1;resizable=0;points=[];autosize=1;align=center;verticalAlign=top;spacingTop=-4;fontSize=12;" parent="1" vertex="1">
          <mxGeometry x="1494" y="713.3529411764706" width="47" height="15" as="geometry"/>
        </mxCell>
        <mxCell id="wcz-8A4uhaqFpy4rLhZc-26" value="负载均衡器" style="text;html=1;resizable=0;points=[];autosize=1;align=center;verticalAlign=top;spacingTop=-4;fontSize=10;" parent="1" vertex="1">
          <mxGeometry x="777.5" y="507.5" width="60" height="10" as="geometry"/>
        </mxCell>
        <mxCell id="wcz-8A4uhaqFpy4rLhZc-27" value="" style="shadow=0;dashed=0;html=1;labelPosition=center;verticalLabelPosition=bottom;verticalAlign=top;align=center;outlineConnect=0;shape=mxgraph.veeam.3d.proxy_appliance;direction=east;" parent="1" vertex="1">
          <mxGeometry x="1495" y="759.3529411764706" width="46" height="44.5625" as="geometry"/>
        </mxCell>
        <mxCell id="wcz-8A4uhaqFpy4rLhZc-28" value="负载均衡器" style="text;html=1;resizable=0;points=[];autosize=1;align=center;verticalAlign=top;spacingTop=-4;fontSize=10;" parent="1" vertex="1">
          <mxGeometry x="1488" y="806.3529411764706" width="60" height="10" as="geometry"/>
        </mxCell>
        <mxCell id="wcz-8A4uhaqFpy4rLhZc-29" value="" style="html=1;fillColor=#99CCFF;strokeColor=#6881B3;gradientColor=none;gradientDirection=north;strokeWidth=1;shape=mxgraph.networks.bus;gradientColor=none;gradientDirection=north;fontColor=#ffffff;perimeter=backbonePerimeter;backboneSize=20;align=center;fontSize=12;" parent="1" vertex="1">
          <mxGeometry x="1468" y="867.3529411764706" width="100" height="10" as="geometry"/>
        </mxCell>
        <mxCell id="wcz-8A4uhaqFpy4rLhZc-30" style="edgeStyle=orthogonalEdgeStyle;rounded=0;orthogonalLoop=1;jettySize=auto;html=1;exitX=1;exitY=0.5;exitDx=0;exitDy=0;strokeColor=#6881B3;endArrow=none;endFill=0;" parent="1" source="wcz-8A4uhaqFpy4rLhZc-31" target="wcz-8A4uhaqFpy4rLhZc-113" edge="1">
          <mxGeometry relative="1" as="geometry">
            <Array as="points">
              <mxPoint x="1693.5" y="873.5"/>
              <mxPoint x="1693.5" y="478.5"/>
            </Array>
          </mxGeometry>
        </mxCell>
        <mxCell id="wcz-8A4uhaqFpy4rLhZc-31" value="" style="shape=image;html=1;verticalAlign=top;verticalLabelPosition=bottom;labelBackgroundColor=#ffffff;imageAspect=0;aspect=fixed;image=https://cdn4.iconfinder.com/data/icons/VISTA/networking/png/128/firewall.png;strokeColor=#6881B3;fillColor=#99CCFF;fontSize=12;align=center;" parent="1" vertex="1">
          <mxGeometry x="1642" y="854.5" width="40" height="40" as="geometry"/>
        </mxCell>
        <mxCell id="wcz-8A4uhaqFpy4rLhZc-32" value="" style="endArrow=none;html=1;strokeColor=#6881B3;strokeWidth=1;fontSize=8;exitX=0.485;exitY=-0.318;exitDx=0;exitDy=0;exitPerimeter=0;entryX=0.456;entryY=1.182;entryDx=0;entryDy=0;entryPerimeter=0;" parent="1" source="wcz-8A4uhaqFpy4rLhZc-29" target="wcz-8A4uhaqFpy4rLhZc-28" edge="1">
          <mxGeometry width="50" height="50" relative="1" as="geometry">
            <mxPoint x="1599" y="858.3529411764706" as="sourcePoint"/>
            <mxPoint x="1649" y="808.3529411764706" as="targetPoint"/>
          </mxGeometry>
        </mxCell>
        <mxCell id="wcz-8A4uhaqFpy4rLhZc-33" value="" style="group" parent="1" vertex="1" connectable="0">
          <mxGeometry x="1498.5" y="930.3529411764706" width="42.39999999999998" height="40" as="geometry"/>
        </mxCell>
        <mxCell id="wcz-8A4uhaqFpy4rLhZc-34" value="" style="aspect=fixed;perimeter=ellipsePerimeter;html=1;align=center;shadow=0;dashed=0;spacingTop=3;image;image=img/lib/active_directory/generic_server.svg;strokeColor=#6881B3;strokeWidth=1;fillColor=#99CCFF;fontSize=8;" parent="wcz-8A4uhaqFpy4rLhZc-33" vertex="1">
          <mxGeometry width="22.4" height="40" as="geometry"/>
        </mxCell>
        <mxCell id="wcz-8A4uhaqFpy4rLhZc-35" value="" style="aspect=fixed;perimeter=ellipsePerimeter;html=1;align=center;shadow=0;dashed=0;spacingTop=3;image;image=img/lib/active_directory/generic_server.svg;strokeColor=#6881B3;strokeWidth=1;fillColor=#99CCFF;fontSize=8;" parent="wcz-8A4uhaqFpy4rLhZc-33" vertex="1">
          <mxGeometry x="20" width="22.4" height="40" as="geometry"/>
        </mxCell>
        <mxCell id="wcz-8A4uhaqFpy4rLhZc-36" value="内联接口&lt;br style=&quot;font-size: 10px;&quot;&gt;堡垒机" style="text;html=1;resizable=0;points=[];autosize=1;align=center;verticalAlign=top;spacingTop=-4;fontSize=10;" parent="1" vertex="1">
          <mxGeometry x="1496" y="970.3529411764706" width="50" height="20" as="geometry"/>
        </mxCell>
        <mxCell id="wcz-8A4uhaqFpy4rLhZc-37" value="" style="strokeColor=#6881B3;edgeStyle=none;rounded=0;endArrow=none;html=1;strokeWidth=1;fontSize=12;" parent="1" edge="1">
          <mxGeometry relative="1" as="geometry">
            <mxPoint x="1518" y="933.3529411764706" as="sourcePoint"/>
            <mxPoint x="1518" y="883.4999999999999" as="targetPoint"/>
            <Array as="points">
              <mxPoint x="1518" y="910.3529411764706"/>
            </Array>
          </mxGeometry>
        </mxCell>
        <mxCell id="wcz-8A4uhaqFpy4rLhZc-38" value="" style="rounded=0;whiteSpace=wrap;html=1;strokeColor=#82b366;strokeWidth=1;fillColor=#d5e8d4;fontSize=8;align=center;" parent="1" vertex="1">
          <mxGeometry x="695.5" y="699.5" width="586" height="310" as="geometry"/>
        </mxCell>
        <mxCell id="wcz-8A4uhaqFpy4rLhZc-39" value="" style="html=1;fillColor=#99CCFF;strokeColor=#6881B3;gradientColor=none;gradientDirection=north;strokeWidth=1;shape=mxgraph.networks.bus;gradientColor=none;gradientDirection=north;fontColor=#ffffff;perimeter=backbonePerimeter;backboneSize=20;align=center;" parent="1" vertex="1">
          <mxGeometry x="851.5" y="867.5" width="373" height="20" as="geometry"/>
        </mxCell>
        <mxCell id="wcz-8A4uhaqFpy4rLhZc-40" value="" style="strokeColor=#6881B3;edgeStyle=none;rounded=0;endArrow=none;html=1;strokeWidth=1;fontSize=8;" parent="1" edge="1">
          <mxGeometry relative="1" as="geometry">
            <mxPoint x="925" y="825.8529411764706" as="sourcePoint"/>
            <mxPoint x="925" y="868.5294117647057" as="targetPoint"/>
          </mxGeometry>
        </mxCell>
        <mxCell id="wcz-8A4uhaqFpy4rLhZc-41" value="" style="strokeColor=#6881B3;edgeStyle=none;rounded=0;endArrow=none;html=1;strokeWidth=1;fontSize=8;" parent="1" edge="1">
          <mxGeometry relative="1" as="geometry">
            <mxPoint x="1064" y="826.8529411764706" as="sourcePoint"/>
            <mxPoint x="1064" y="869.5294117647057" as="targetPoint"/>
          </mxGeometry>
        </mxCell>
        <mxCell id="wcz-8A4uhaqFpy4rLhZc-42" value="" style="strokeColor=#6881B3;edgeStyle=none;rounded=0;endArrow=none;html=1;strokeWidth=1;fontSize=8;" parent="1" edge="1">
          <mxGeometry relative="1" as="geometry">
            <mxPoint x="1136" y="829.3529411764706" as="sourcePoint"/>
            <mxPoint x="1136" y="868.5196078431374" as="targetPoint"/>
          </mxGeometry>
        </mxCell>
        <mxCell id="wcz-8A4uhaqFpy4rLhZc-43" value="" style="shadow=0;dashed=0;html=1;labelPosition=center;verticalLabelPosition=bottom;verticalAlign=top;align=center;outlineConnect=0;shape=mxgraph.veeam.3d.proxy_appliance;direction=east;" parent="1" vertex="1">
          <mxGeometry x="768.5" y="928.3529411764706" width="45" height="44" as="geometry"/>
        </mxCell>
        <mxCell id="wcz-8A4uhaqFpy4rLhZc-44" value="负载均衡器" style="text;html=1;resizable=0;points=[];autosize=1;align=center;verticalAlign=top;spacingTop=-4;fontSize=10;" parent="1" vertex="1">
          <mxGeometry x="757.5" y="976.3529411764706" width="60" height="10" as="geometry"/>
        </mxCell>
        <mxCell id="wcz-8A4uhaqFpy4rLhZc-45" value="" style="aspect=fixed;perimeter=ellipsePerimeter;html=1;align=center;shadow=0;dashed=0;spacingTop=3;image;image=img/lib/active_directory/generic_server.svg;strokeColor=#6881B3;strokeWidth=1;fillColor=#99CCFF;fontSize=8;" parent="1" vertex="1">
          <mxGeometry x="1125" y="763.5" width="22.4" height="40" as="geometry"/>
        </mxCell>
        <mxCell id="wcz-8A4uhaqFpy4rLhZc-46" value="" style="aspect=fixed;perimeter=ellipsePerimeter;html=1;align=center;shadow=0;dashed=0;spacingTop=3;image;image=img/lib/active_directory/generic_server.svg;strokeColor=#6881B3;strokeWidth=1;fillColor=#99CCFF;fontSize=8;" parent="1" vertex="1">
          <mxGeometry x="1052.5" y="763.5" width="22.4" height="40" as="geometry"/>
        </mxCell>
        <mxCell id="wcz-8A4uhaqFpy4rLhZc-47" value="企业服务&lt;br&gt;总线" style="text;html=1;resizable=0;points=[];autosize=1;align=center;verticalAlign=top;spacingTop=-4;fontSize=10;" parent="1" vertex="1">
          <mxGeometry x="1107.5" y="803.5" width="58" height="24" as="geometry"/>
        </mxCell>
        <mxCell id="wcz-8A4uhaqFpy4rLhZc-48" value="渠道管理&lt;br&gt;平台" style="text;html=1;resizable=0;points=[];autosize=1;align=center;verticalAlign=top;spacingTop=-4;fontSize=10;" parent="1" vertex="1">
          <mxGeometry x="1037.5" y="803.5" width="58" height="24" as="geometry"/>
        </mxCell>
        <mxCell id="wcz-8A4uhaqFpy4rLhZc-49" value="" style="aspect=fixed;perimeter=ellipsePerimeter;html=1;align=center;shadow=0;dashed=0;spacingTop=3;image;image=img/lib/active_directory/generic_server.svg;strokeColor=#6881B3;strokeWidth=1;fillColor=#99CCFF;fontSize=8;" parent="1" vertex="1">
          <mxGeometry x="916" y="763.5" width="22.4" height="40" as="geometry"/>
        </mxCell>
        <mxCell id="wcz-8A4uhaqFpy4rLhZc-50" value="企业数据&lt;br&gt;总线" style="text;html=1;resizable=0;points=[];autosize=1;align=center;verticalAlign=top;spacingTop=-4;fontSize=10;" parent="1" vertex="1">
          <mxGeometry x="895.5" y="803.3529411764706" width="58" height="24" as="geometry"/>
        </mxCell>
        <mxCell id="wcz-8A4uhaqFpy4rLhZc-51" value="" style="group" parent="1" vertex="1" connectable="0">
          <mxGeometry x="854" y="929.3529411764706" width="56" height="40" as="geometry"/>
        </mxCell>
        <mxCell id="wcz-8A4uhaqFpy4rLhZc-52" value="" style="aspect=fixed;perimeter=ellipsePerimeter;html=1;align=center;shadow=0;dashed=0;spacingTop=3;image;image=img/lib/active_directory/web_server.svg;strokeColor=#6881B3;strokeWidth=1;fillColor=#99CCFF;fontSize=12;" parent="wcz-8A4uhaqFpy4rLhZc-51" vertex="1">
          <mxGeometry width="32" height="40" as="geometry"/>
        </mxCell>
        <mxCell id="wcz-8A4uhaqFpy4rLhZc-53" value="" style="aspect=fixed;perimeter=ellipsePerimeter;html=1;align=center;shadow=0;dashed=0;spacingTop=3;image;image=img/lib/active_directory/web_server.svg;strokeColor=#6881B3;strokeWidth=1;fillColor=#99CCFF;fontSize=12;" parent="wcz-8A4uhaqFpy4rLhZc-51" vertex="1">
          <mxGeometry x="24" y="2" width="32" height="40" as="geometry"/>
        </mxCell>
        <mxCell id="wcz-8A4uhaqFpy4rLhZc-54" value="核心区&lt;br&gt;业务应用服务器" style="text;html=1;resizable=0;points=[];autosize=1;align=center;verticalAlign=top;spacingTop=-4;fontSize=10;" parent="1" vertex="1">
          <mxGeometry x="838" y="975.3529411764706" width="80" height="24" as="geometry"/>
        </mxCell>
        <mxCell id="wcz-8A4uhaqFpy4rLhZc-55" value="业务应用数据库" style="text;html=1;resizable=0;points=[];autosize=1;align=center;verticalAlign=top;spacingTop=-4;fontSize=10;" parent="1" vertex="1">
          <mxGeometry x="939" y="975.3529411764706" width="94" height="12" as="geometry"/>
        </mxCell>
        <mxCell id="wcz-8A4uhaqFpy4rLhZc-56" value="" style="aspect=fixed;perimeter=ellipsePerimeter;html=1;align=center;shadow=0;dashed=0;spacingTop=3;image;image=img/lib/active_directory/database_server.svg;strokeColor=#6881B3;strokeWidth=1;fillColor=#99CCFF;fontSize=8;" parent="1" vertex="1">
          <mxGeometry x="949.5" y="931.3529411764706" width="32.8" height="40" as="geometry"/>
        </mxCell>
        <mxCell id="wcz-8A4uhaqFpy4rLhZc-57" value="" style="aspect=fixed;perimeter=ellipsePerimeter;html=1;align=center;shadow=0;dashed=0;spacingTop=3;image;image=img/lib/active_directory/database_server.svg;strokeColor=#6881B3;strokeWidth=1;fillColor=#99CCFF;fontSize=8;" parent="1" vertex="1">
          <mxGeometry x="967.5" y="931.3529411764706" width="32.8" height="40" as="geometry"/>
        </mxCell>
        <mxCell id="wcz-8A4uhaqFpy4rLhZc-58" value="" style="aspect=fixed;perimeter=ellipsePerimeter;html=1;align=center;shadow=0;dashed=0;spacingTop=3;image;image=img/lib/active_directory/database_server.svg;strokeColor=#6881B3;strokeWidth=1;fillColor=#99CCFF;fontSize=8;" parent="1" vertex="1">
          <mxGeometry x="986" y="931.3529411764706" width="32.8" height="40" as="geometry"/>
        </mxCell>
        <mxCell id="wcz-8A4uhaqFpy4rLhZc-59" value="&lt;font style=&quot;font-size: 15px&quot;&gt;核心区&lt;/font&gt;" style="text;html=1;resizable=0;points=[];autosize=1;align=center;verticalAlign=top;spacingTop=-4;fontSize=12;" parent="1" vertex="1">
          <mxGeometry x="984" y="709.8529411764706" width="55" height="15" as="geometry"/>
        </mxCell>
        <mxCell id="wcz-8A4uhaqFpy4rLhZc-60" value="" style="shape=image;html=1;verticalAlign=top;verticalLabelPosition=bottom;labelBackgroundColor=#ffffff;imageAspect=0;aspect=fixed;image=https://cdn4.iconfinder.com/data/icons/VISTA/networking/png/128/firewall.png;strokeColor=#6881B3;fillColor=#99CCFF;fontSize=12;align=center;" parent="1" vertex="1">
          <mxGeometry x="1331" y="854.3529411764706" width="40" height="40" as="geometry"/>
        </mxCell>
        <mxCell id="wcz-8A4uhaqFpy4rLhZc-61" value="" style="points=[];aspect=fixed;html=1;align=center;shadow=0;dashed=0;image;image=img/lib/allied_telesis/computer_and_terminals/Personal_Computer.svg;strokeColor=#6881B3;fillColor=#99CCFF;fontSize=12;" parent="1" vertex="1">
          <mxGeometry x="541.5" y="845.95" width="29.5" height="40.31666666666666" as="geometry"/>
        </mxCell>
        <mxCell id="wcz-8A4uhaqFpy4rLhZc-62" value="" style="verticalLabelPosition=bottom;html=1;verticalAlign=top;align=center;strokeColor=none;fillColor=#00BEF2;shape=mxgraph.azure.user;" parent="1" vertex="1">
          <mxGeometry x="497.5" y="843" width="40" height="39.33333333333333" as="geometry"/>
        </mxCell>
        <mxCell id="wcz-8A4uhaqFpy4rLhZc-63" value="区块链服务平台用户" style="text;html=1;resizable=0;points=[];autosize=1;align=center;verticalAlign=top;spacingTop=-4;fontSize=12;" parent="1" vertex="1">
          <mxGeometry x="459.5" y="886.3333333333333" width="118" height="14" as="geometry"/>
        </mxCell>
        <mxCell id="wcz-8A4uhaqFpy4rLhZc-64" value="" style="endArrow=none;html=1;strokeColor=#6881B3;exitX=0.926;exitY=0.743;exitDx=0;exitDy=0;exitPerimeter=0;entryX=0;entryY=0.5;entryDx=0;entryDy=0;" parent="1" source="wcz-8A4uhaqFpy4rLhZc-29" target="wcz-8A4uhaqFpy4rLhZc-31" edge="1">
          <mxGeometry width="50" height="50" relative="1" as="geometry">
            <mxPoint x="1635.5" y="969.5" as="sourcePoint"/>
            <mxPoint x="1685.5" y="919.5" as="targetPoint"/>
          </mxGeometry>
        </mxCell>
        <mxCell id="wcz-8A4uhaqFpy4rLhZc-65" value="" style="points=[];aspect=fixed;html=1;align=center;shadow=0;dashed=0;image;image=img/lib/allied_telesis/computer_and_terminals/Personal_Computer.svg;strokeColor=#6881B3;fillColor=#99CCFF;fontSize=12;" parent="1" vertex="1">
          <mxGeometry x="555.5" y="929.3529411764707" width="30" height="41" as="geometry"/>
        </mxCell>
        <mxCell id="wcz-8A4uhaqFpy4rLhZc-66" value="" style="verticalLabelPosition=bottom;html=1;verticalAlign=top;align=center;strokeColor=none;fillColor=#E6E6E6;shape=mxgraph.azure.user;" parent="1" vertex="1">
          <mxGeometry x="505.5" y="926.3529411764706" width="40" height="40" as="geometry"/>
        </mxCell>
        <mxCell id="wcz-8A4uhaqFpy4rLhZc-67" value="应用用户" style="text;html=1;resizable=0;points=[];autosize=1;align=center;verticalAlign=top;spacingTop=-4;fontSize=12;" parent="1" vertex="1">
          <mxGeometry x="497.5" y="970.3529411764707" width="58" height="14" as="geometry"/>
        </mxCell>
        <mxCell id="wcz-8A4uhaqFpy4rLhZc-68" value="" style="endArrow=none;html=1;strokeColor=#6881B3;entryX=0;entryY=0.5;entryDx=0;entryDy=0;" parent="1" target="wcz-8A4uhaqFpy4rLhZc-60" edge="1">
          <mxGeometry width="50" height="50" relative="1" as="geometry">
            <mxPoint x="1215.5" y="874.5" as="sourcePoint"/>
            <mxPoint x="1189.5" y="908.5" as="targetPoint"/>
          </mxGeometry>
        </mxCell>
        <mxCell id="wcz-8A4uhaqFpy4rLhZc-69" value="" style="endArrow=none;html=1;strokeColor=#6881B3;entryX=0.024;entryY=0.6;entryDx=0;entryDy=0;entryPerimeter=0;" parent="1" target="wcz-8A4uhaqFpy4rLhZc-29" edge="1">
          <mxGeometry width="50" height="50" relative="1" as="geometry">
            <mxPoint x="1397" y="874.1613702952448" as="sourcePoint"/>
            <mxPoint x="1299.5" y="872.5" as="targetPoint"/>
          </mxGeometry>
        </mxCell>
        <mxCell id="wcz-8A4uhaqFpy4rLhZc-70" value="" style="endArrow=none;html=1;strokeColor=#6881B3;" parent="1" source="wcz-8A4uhaqFpy4rLhZc-65" target="wcz-8A4uhaqFpy4rLhZc-43" edge="1">
          <mxGeometry width="50" height="50" relative="1" as="geometry">
            <mxPoint x="668.5" y="883.5" as="sourcePoint"/>
            <mxPoint x="718.5" y="833.5" as="targetPoint"/>
          </mxGeometry>
        </mxCell>
        <mxCell id="wcz-8A4uhaqFpy4rLhZc-71" value="" style="aspect=fixed;perimeter=ellipsePerimeter;html=1;align=center;shadow=0;dashed=0;spacingTop=3;image;image=img/lib/active_directory/generic_server.svg;strokeColor=#6881B3;strokeWidth=1;fillColor=#99CCFF;fontSize=8;" parent="1" vertex="1">
          <mxGeometry x="881.5" y="512.5" width="22.4" height="40" as="geometry"/>
        </mxCell>
        <mxCell id="wcz-8A4uhaqFpy4rLhZc-72" value="" style="aspect=fixed;perimeter=ellipsePerimeter;html=1;align=center;shadow=0;dashed=0;spacingTop=3;image;image=img/lib/active_directory/generic_server.svg;strokeColor=#6881B3;strokeWidth=1;fillColor=#99CCFF;fontSize=8;" parent="1" vertex="1">
          <mxGeometry x="881.5" y="393.5" width="22.4" height="40" as="geometry"/>
        </mxCell>
        <mxCell id="wcz-8A4uhaqFpy4rLhZc-73" value="外联前置&lt;br style=&quot;font-size: 10px&quot;&gt;堡垒机" style="text;html=1;resizable=0;points=[];autosize=1;align=center;verticalAlign=top;spacingTop=-4;fontSize=10;" parent="1" vertex="1">
          <mxGeometry x="866.5" y="551" width="50" height="24" as="geometry"/>
        </mxCell>
        <mxCell id="wcz-8A4uhaqFpy4rLhZc-74" value="" style="endArrow=none;html=1;entryX=0;entryY=0.5;entryDx=0;entryDy=0;strokeColor=#6881B3;" parent="1" source="wcz-8A4uhaqFpy4rLhZc-12" target="wcz-8A4uhaqFpy4rLhZc-72" edge="1">
          <mxGeometry width="50" height="50" relative="1" as="geometry">
            <mxPoint x="827.5" y="441.5" as="sourcePoint"/>
            <mxPoint x="877.5" y="391.5" as="targetPoint"/>
          </mxGeometry>
        </mxCell>
        <mxCell id="wcz-8A4uhaqFpy4rLhZc-75" value="" style="endArrow=none;html=1;strokeColor=#6881B3;exitX=0;exitY=0.5;exitDx=0;exitDy=0;" parent="1" source="wcz-8A4uhaqFpy4rLhZc-71" target="wcz-8A4uhaqFpy4rLhZc-12" edge="1">
          <mxGeometry width="50" height="50" relative="1" as="geometry">
            <mxPoint x="784.5" y="621.5" as="sourcePoint"/>
            <mxPoint x="834.5" y="571.5" as="targetPoint"/>
          </mxGeometry>
        </mxCell>
        <mxCell id="wcz-8A4uhaqFpy4rLhZc-76" value="" style="endArrow=none;html=1;strokeColor=#6881B3;exitX=1;exitY=0.5;exitDx=0;exitDy=0;entryX=0;entryY=0.5;entryDx=0;entryDy=0;" parent="1" source="wcz-8A4uhaqFpy4rLhZc-71" target="wcz-8A4uhaqFpy4rLhZc-16" edge="1">
          <mxGeometry width="50" height="50" relative="1" as="geometry">
            <mxPoint x="962.5" y="634.5" as="sourcePoint"/>
            <mxPoint x="1012.5" y="584.5" as="targetPoint"/>
          </mxGeometry>
        </mxCell>
        <mxCell id="wcz-8A4uhaqFpy4rLhZc-102" value="" style="endArrow=none;html=1;strokeColor=#6881B3;entryX=0;entryY=0.5;entryDx=0;entryDy=0;" parent="1" source="wcz-8A4uhaqFpy4rLhZc-43" target="wcz-8A4uhaqFpy4rLhZc-52" edge="1">
          <mxGeometry width="50" height="50" relative="1" as="geometry">
            <mxPoint x="835.5" y="977.5" as="sourcePoint"/>
            <mxPoint x="885.5" y="927.5" as="targetPoint"/>
          </mxGeometry>
        </mxCell>
        <mxCell id="wcz-8A4uhaqFpy4rLhZc-103" style="edgeStyle=orthogonalEdgeStyle;rounded=0;orthogonalLoop=1;jettySize=auto;html=1;endArrow=none;endFill=0;strokeColor=#6881B3;" parent="1" source="wcz-8A4uhaqFpy4rLhZc-53" target="wcz-8A4uhaqFpy4rLhZc-56" edge="1">
          <mxGeometry relative="1" as="geometry"/>
        </mxCell>
        <mxCell id="wcz-8A4uhaqFpy4rLhZc-104" value="" style="aspect=fixed;perimeter=ellipsePerimeter;html=1;align=center;shadow=0;dashed=0;spacingTop=3;image;image=img/lib/active_directory/generic_server.svg;strokeColor=#6881B3;strokeWidth=1;fillColor=#99CCFF;fontSize=8;" parent="1" vertex="1">
          <mxGeometry x="1193" y="763.5" width="22.4" height="40" as="geometry"/>
        </mxCell>
        <mxCell id="wcz-8A4uhaqFpy4rLhZc-105" value="短信平台" style="text;html=1;resizable=0;points=[];autosize=1;align=center;verticalAlign=top;spacingTop=-4;fontSize=10;" parent="1" vertex="1">
          <mxGeometry x="1180.5" y="803.5" width="58" height="14" as="geometry"/>
        </mxCell>
        <mxCell id="wcz-8A4uhaqFpy4rLhZc-106" value="" style="aspect=fixed;perimeter=ellipsePerimeter;html=1;align=center;shadow=0;dashed=0;spacingTop=3;image;image=img/lib/active_directory/generic_server.svg;strokeColor=#6881B3;strokeWidth=1;fillColor=#99CCFF;fontSize=8;" parent="1" vertex="1">
          <mxGeometry x="984.5" y="763.5" width="22.4" height="40" as="geometry"/>
        </mxCell>
        <mxCell id="wcz-8A4uhaqFpy4rLhZc-107" value="柜员管理&lt;br&gt;系统" style="text;html=1;resizable=0;points=[];autosize=1;align=center;verticalAlign=top;spacingTop=-4;" parent="1" vertex="1">
          <mxGeometry x="964.5" y="803.5" width="58" height="28" as="geometry"/>
        </mxCell>
        <mxCell id="wcz-8A4uhaqFpy4rLhZc-108" style="edgeStyle=orthogonalEdgeStyle;rounded=0;orthogonalLoop=1;jettySize=auto;html=1;exitX=0.5;exitY=0;exitDx=0;exitDy=0;entryX=0.049;entryY=0.864;entryDx=0;entryDy=0;entryPerimeter=0;endArrow=none;endFill=0;strokeColor=#6881B3;" parent="1" edge="1">
          <mxGeometry relative="1" as="geometry">
            <mxPoint x="879.7857142857144" y="931.0714285714287" as="sourcePoint"/>
            <mxPoint x="879.7857142857144" y="886.7857142857144" as="targetPoint"/>
          </mxGeometry>
        </mxCell>
        <mxCell id="wcz-8A4uhaqFpy4rLhZc-109" value="" style="endArrow=none;html=1;strokeColor=#6881B3;entryX=-0.001;entryY=0.436;entryDx=0;entryDy=0;entryPerimeter=0;exitX=1.056;exitY=0.751;exitDx=0;exitDy=0;exitPerimeter=0;" parent="1" source="wcz-8A4uhaqFpy4rLhZc-61" target="wcz-8A4uhaqFpy4rLhZc-39" edge="1">
          <mxGeometry width="50" height="50" relative="1" as="geometry">
            <mxPoint x="734.5" y="888.5" as="sourcePoint"/>
            <mxPoint x="784.5" y="838.5" as="targetPoint"/>
          </mxGeometry>
        </mxCell>
        <mxCell id="wcz-8A4uhaqFpy4rLhZc-110" value="" style="strokeColor=#6881B3;edgeStyle=none;rounded=0;endArrow=none;html=1;strokeWidth=1;fontSize=8;" parent="1" edge="1">
          <mxGeometry relative="1" as="geometry">
            <mxPoint x="995" y="825.5" as="sourcePoint"/>
            <mxPoint x="995" y="868.1764705882351" as="targetPoint"/>
          </mxGeometry>
        </mxCell>
        <mxCell id="wcz-8A4uhaqFpy4rLhZc-111" value="" style="strokeColor=#6881B3;edgeStyle=none;rounded=0;endArrow=none;html=1;strokeWidth=1;fontSize=8;" parent="1" edge="1">
          <mxGeometry relative="1" as="geometry">
            <mxPoint x="1203.5" y="823.5" as="sourcePoint"/>
            <mxPoint x="1203.5" y="866.1764705882351" as="targetPoint"/>
          </mxGeometry>
        </mxCell>
        <mxCell id="wcz-8A4uhaqFpy4rLhZc-112" value="" style="edgeStyle=orthogonalEdgeStyle;rounded=0;orthogonalLoop=1;jettySize=auto;html=1;endArrow=none;endFill=0;strokeColor=#6881B3;fontSize=10;" parent="1" source="wcz-8A4uhaqFpy4rLhZc-113" target="wcz-8A4uhaqFpy4rLhZc-117" edge="1">
          <mxGeometry relative="1" as="geometry"/>
        </mxCell>
        <mxCell id="wcz-8A4uhaqFpy4rLhZc-113" value="" style="shadow=0;dashed=0;html=1;labelPosition=center;verticalLabelPosition=bottom;verticalAlign=top;align=center;outlineConnect=0;shape=mxgraph.veeam.3d.proxy_appliance;direction=east;" parent="1" vertex="1">
          <mxGeometry x="1586" y="453.5" width="46" height="44.5625" as="geometry"/>
        </mxCell>
        <mxCell id="wcz-8A4uhaqFpy4rLhZc-114" value="负载均衡器" style="text;html=1;resizable=0;points=[];autosize=1;align=center;verticalAlign=top;spacingTop=-4;fontSize=10;" parent="1" vertex="1">
          <mxGeometry x="1579" y="499.5" width="60" height="10" as="geometry"/>
        </mxCell>
        <mxCell id="wcz-8A4uhaqFpy4rLhZc-116" value="" style="group" parent="1" vertex="1" connectable="0">
          <mxGeometry x="1498.5" y="456" width="42.39999999999998" height="40" as="geometry"/>
        </mxCell>
        <mxCell id="wcz-8A4uhaqFpy4rLhZc-117" value="" style="aspect=fixed;perimeter=ellipsePerimeter;html=1;align=center;shadow=0;dashed=0;spacingTop=3;image;image=img/lib/active_directory/generic_server.svg;strokeColor=#6881B3;strokeWidth=1;fillColor=#99CCFF;fontSize=8;" parent="wcz-8A4uhaqFpy4rLhZc-116" vertex="1">
          <mxGeometry width="22.4" height="40" as="geometry"/>
        </mxCell>
        <mxCell id="wcz-8A4uhaqFpy4rLhZc-118" value="" style="aspect=fixed;perimeter=ellipsePerimeter;html=1;align=center;shadow=0;dashed=0;spacingTop=3;image;image=img/lib/active_directory/generic_server.svg;strokeColor=#6881B3;strokeWidth=1;fillColor=#99CCFF;fontSize=8;" parent="wcz-8A4uhaqFpy4rLhZc-116" vertex="1">
          <mxGeometry x="20" width="22.4" height="40" as="geometry"/>
        </mxCell>
        <mxCell id="wcz-8A4uhaqFpy4rLhZc-119" value="nginx" style="text;html=1;resizable=0;points=[];autosize=1;align=center;verticalAlign=top;spacingTop=-4;fontSize=10;" parent="1" vertex="1">
          <mxGeometry x="1504" y="496" width="34" height="12" as="geometry"/>
        </mxCell>
        <mxCell id="wcz-8A4uhaqFpy4rLhZc-120" style="edgeStyle=orthogonalEdgeStyle;rounded=0;orthogonalLoop=1;jettySize=auto;html=1;exitX=0;exitY=0.5;exitDx=0;exitDy=0;entryX=0.996;entryY=0.45;entryDx=0;entryDy=0;entryPerimeter=0;endArrow=none;endFill=0;strokeColor=#6881B3;fontSize=10;" parent="1" source="wcz-8A4uhaqFpy4rLhZc-117" edge="1" target="f2JPj_Oiv7TSIDXI8G9g-131">
          <mxGeometry relative="1" as="geometry">
            <mxPoint x="1429.166666666667" y="475.5" as="targetPoint"/>
          </mxGeometry>
        </mxCell>
        <mxCell id="wcz-8A4uhaqFpy4rLhZc-133" value="" style="group" parent="1" vertex="1" connectable="0">
          <mxGeometry x="377" y="438.5" width="124" height="78" as="geometry"/>
        </mxCell>
        <mxCell id="wcz-8A4uhaqFpy4rLhZc-121" value="" style="aspect=fixed;perimeter=ellipsePerimeter;html=1;align=center;shadow=0;dashed=0;spacingTop=3;image;image=img/lib/active_directory/internet_cloud.svg;fontSize=10;" parent="wcz-8A4uhaqFpy4rLhZc-133" vertex="1">
          <mxGeometry width="124" height="78" as="geometry"/>
        </mxCell>
        <mxCell id="wcz-8A4uhaqFpy4rLhZc-122" value="联盟链其他机构" style="text;html=1;resizable=0;points=[];autosize=1;align=left;verticalAlign=top;spacingTop=-4;fontSize=14;" parent="wcz-8A4uhaqFpy4rLhZc-133" vertex="1">
          <mxGeometry x="13" y="30" width="80" height="12" as="geometry"/>
        </mxCell>
        <mxCell id="wcz-8A4uhaqFpy4rLhZc-142" value="" style="group" parent="1" vertex="1" connectable="0">
          <mxGeometry x="585.5" y="472.5" width="42.39999999999998" height="40" as="geometry"/>
        </mxCell>
        <mxCell id="wcz-8A4uhaqFpy4rLhZc-143" value="" style="aspect=fixed;perimeter=ellipsePerimeter;html=1;align=center;shadow=0;dashed=0;spacingTop=3;image;image=img/lib/active_directory/generic_server.svg;strokeColor=#6881B3;strokeWidth=1;fillColor=#99CCFF;fontSize=8;" parent="wcz-8A4uhaqFpy4rLhZc-142" vertex="1">
          <mxGeometry width="22.4" height="40" as="geometry"/>
        </mxCell>
        <mxCell id="wcz-8A4uhaqFpy4rLhZc-144" value="" style="aspect=fixed;perimeter=ellipsePerimeter;html=1;align=center;shadow=0;dashed=0;spacingTop=3;image;image=img/lib/active_directory/generic_server.svg;strokeColor=#6881B3;strokeWidth=1;fillColor=#99CCFF;fontSize=8;" parent="wcz-8A4uhaqFpy4rLhZc-142" vertex="1">
          <mxGeometry x="20" width="22.4" height="40" as="geometry"/>
        </mxCell>
        <mxCell id="wcz-8A4uhaqFpy4rLhZc-145" value="nginx" style="text;html=1;resizable=0;points=[];autosize=1;align=center;verticalAlign=top;spacingTop=-4;fontSize=10;" parent="1" vertex="1">
          <mxGeometry x="591" y="512.5" width="34" height="12" as="geometry"/>
        </mxCell>
        <mxCell id="wcz-8A4uhaqFpy4rLhZc-150" value="" style="group" parent="1" vertex="1" connectable="0">
          <mxGeometry x="577.5" y="365.5" width="68.39999999999998" height="63.5" as="geometry"/>
        </mxCell>
        <mxCell id="wcz-8A4uhaqFpy4rLhZc-135" value="共识&lt;br&gt;服务器" style="text;html=1;resizable=0;points=[];autosize=1;align=center;verticalAlign=top;spacingTop=-4;fontSize=10;" parent="wcz-8A4uhaqFpy4rLhZc-150" vertex="1">
          <mxGeometry x="13.5" y="39.5" width="40" height="24" as="geometry"/>
        </mxCell>
        <mxCell id="wcz-8A4uhaqFpy4rLhZc-136" value="" style="aspect=fixed;perimeter=ellipsePerimeter;html=1;align=center;shadow=0;dashed=0;spacingTop=3;image;image=img/lib/active_directory/generic_server.svg;strokeColor=#6881B3;strokeWidth=1;fillColor=#99CCFF;fontSize=8;" parent="wcz-8A4uhaqFpy4rLhZc-150" vertex="1">
          <mxGeometry width="22.4" height="40" as="geometry"/>
        </mxCell>
        <mxCell id="wcz-8A4uhaqFpy4rLhZc-140" value="" style="aspect=fixed;perimeter=ellipsePerimeter;html=1;align=center;shadow=0;dashed=0;spacingTop=3;image;image=img/lib/active_directory/generic_server.svg;strokeColor=#6881B3;strokeWidth=1;fillColor=#99CCFF;fontSize=8;" parent="wcz-8A4uhaqFpy4rLhZc-150" vertex="1">
          <mxGeometry x="22.5" width="22.4" height="40" as="geometry"/>
        </mxCell>
        <mxCell id="wcz-8A4uhaqFpy4rLhZc-141" value="" style="aspect=fixed;perimeter=ellipsePerimeter;html=1;align=center;shadow=0;dashed=0;spacingTop=3;image;image=img/lib/active_directory/generic_server.svg;strokeColor=#6881B3;strokeWidth=1;fillColor=#99CCFF;fontSize=8;" parent="wcz-8A4uhaqFpy4rLhZc-150" vertex="1">
          <mxGeometry x="46" width="22.4" height="40" as="geometry"/>
        </mxCell>
        <mxCell id="wcz-8A4uhaqFpy4rLhZc-152" value="" style="endArrow=none;html=1;strokeColor=#6881B3;entryX=0.477;entryY=1.028;entryDx=0;entryDy=0;entryPerimeter=0;" parent="1" edge="1">
          <mxGeometry width="50" height="50" relative="1" as="geometry">
            <mxPoint x="610" y="468" as="sourcePoint"/>
            <mxPoint x="609.6659999999999" y="434.6719999999998" as="targetPoint"/>
          </mxGeometry>
        </mxCell>
        <mxCell id="wcz-8A4uhaqFpy4rLhZc-153" value="" style="endArrow=none;html=1;strokeColor=#6881B3;entryX=0;entryY=0.25;entryDx=0;entryDy=0;" parent="1" target="wcz-8A4uhaqFpy4rLhZc-143" edge="1">
          <mxGeometry width="50" height="50" relative="1" as="geometry">
            <mxPoint x="478" y="483" as="sourcePoint"/>
            <mxPoint x="555" y="460" as="targetPoint"/>
          </mxGeometry>
        </mxCell>
        <mxCell id="wcz-8A4uhaqFpy4rLhZc-154" value="联盟公共环境" style="text;html=1;resizable=0;points=[];autosize=1;align=left;verticalAlign=top;spacingTop=-4;fontSize=14;" parent="1" vertex="1">
          <mxGeometry x="570.5" y="319" width="82" height="14" as="geometry"/>
        </mxCell>
        <mxCell id="f2JPj_Oiv7TSIDXI8G9g-130" value="" style="rounded=0;whiteSpace=wrap;html=1;fillColor=none;fontSize=10;dashed=1;strokeColor=#d79b00;strokeWidth=2;" vertex="1" parent="1">
          <mxGeometry x="1040.5" y="354" width="395" height="271" as="geometry"/>
        </mxCell>
        <mxCell id="f2JPj_Oiv7TSIDXI8G9g-131" value="" style="html=1;fillColor=#99CCFF;strokeColor=#6881B3;gradientColor=none;gradientDirection=north;strokeWidth=1;shape=mxgraph.networks.bus;gradientColor=none;gradientDirection=north;fontColor=#ffffff;perimeter=backbonePerimeter;backboneSize=20;align=center;fontSize=12;" vertex="1" parent="1">
          <mxGeometry x="1061.5" y="471" width="347" height="10" as="geometry"/>
        </mxCell>
        <mxCell id="f2JPj_Oiv7TSIDXI8G9g-132" value="" style="strokeColor=#6881B3;edgeStyle=none;rounded=0;endArrow=none;html=1;strokeWidth=1;fontSize=12;" edge="1" parent="1">
          <mxGeometry relative="1" as="geometry">
            <mxPoint x="1154" y="424" as="sourcePoint"/>
            <mxPoint x="1154" y="466.92857142857156" as="targetPoint"/>
          </mxGeometry>
        </mxCell>
        <mxCell id="f2JPj_Oiv7TSIDXI8G9g-133" value="" style="strokeColor=#6881B3;edgeStyle=none;rounded=0;endArrow=none;html=1;strokeWidth=1;fontSize=12;" edge="1" parent="1">
          <mxGeometry relative="1" as="geometry">
            <mxPoint x="1249.5" y="423.5" as="sourcePoint"/>
            <mxPoint x="1249.5" y="465.67647058823513" as="targetPoint"/>
          </mxGeometry>
        </mxCell>
        <mxCell id="f2JPj_Oiv7TSIDXI8G9g-134" value="区块链服务平台&lt;br&gt;管理后台&lt;br&gt;(2台)" style="text;html=1;resizable=0;points=[];autosize=1;align=center;verticalAlign=top;spacingTop=-4;fontSize=10;fillColor=#DAE8FC;" vertex="1" parent="1">
          <mxGeometry x="1115" y="410" width="80" height="36" as="geometry"/>
        </mxCell>
        <mxCell id="f2JPj_Oiv7TSIDXI8G9g-135" value="平台账本&lt;br&gt;服务器&lt;br&gt;(4台)" style="text;html=1;resizable=0;points=[];autosize=1;align=center;verticalAlign=top;spacingTop=-4;fontSize=10;" vertex="1" parent="1">
          <mxGeometry x="1108.5" y="576" width="50" height="36" as="geometry"/>
        </mxCell>
        <mxCell id="f2JPj_Oiv7TSIDXI8G9g-136" value="" style="aspect=fixed;perimeter=ellipsePerimeter;html=1;align=center;shadow=0;dashed=0;spacingTop=3;image;image=img/lib/active_directory/web_server.svg;strokeColor=#6881B3;strokeWidth=1;fillColor=#99CCFF;fontSize=12;" vertex="1" parent="1">
          <mxGeometry x="1139.5" y="370" width="32" height="40" as="geometry"/>
        </mxCell>
        <mxCell id="f2JPj_Oiv7TSIDXI8G9g-137" value="" style="aspect=fixed;perimeter=ellipsePerimeter;html=1;align=center;shadow=0;dashed=0;spacingTop=3;image;image=img/lib/active_directory/web_server.svg;strokeColor=#6881B3;strokeWidth=1;fillColor=#99CCFF;fontSize=12;" vertex="1" parent="1">
          <mxGeometry x="1158" y="370" width="32" height="40" as="geometry"/>
        </mxCell>
        <mxCell id="f2JPj_Oiv7TSIDXI8G9g-138" value="" style="aspect=fixed;perimeter=ellipsePerimeter;html=1;align=center;shadow=0;dashed=0;spacingTop=3;image;image=img/lib/active_directory/database_server.svg;strokeColor=#6881B3;strokeWidth=1;fillColor=#99CCFF;fontSize=8;" vertex="1" parent="1">
          <mxGeometry x="1223" y="370" width="32.8" height="40" as="geometry"/>
        </mxCell>
        <mxCell id="f2JPj_Oiv7TSIDXI8G9g-139" value="管理后台&lt;br style=&quot;font-size: 10px&quot;&gt;PG数据库&lt;br&gt;(3台)" style="text;html=1;resizable=0;points=[];autosize=1;align=center;verticalAlign=top;spacingTop=-4;fillColor=#DAE8FC;fontSize=10;" vertex="1" parent="1">
          <mxGeometry x="1223" y="408" width="54" height="36" as="geometry"/>
        </mxCell>
        <mxCell id="f2JPj_Oiv7TSIDXI8G9g-140" value="" style="aspect=fixed;perimeter=ellipsePerimeter;html=1;align=center;shadow=0;dashed=0;spacingTop=3;image;image=img/lib/active_directory/database_server.svg;strokeColor=#6881B3;strokeWidth=1;fillColor=#99CCFF;fontSize=8;" vertex="1" parent="1">
          <mxGeometry x="1239" y="370" width="32.8" height="40" as="geometry"/>
        </mxCell>
        <mxCell id="f2JPj_Oiv7TSIDXI8G9g-141" value="" style="aspect=fixed;perimeter=ellipsePerimeter;html=1;align=center;shadow=0;dashed=0;spacingTop=3;image;image=img/lib/active_directory/database_server.svg;strokeColor=#6881B3;strokeWidth=1;fillColor=#99CCFF;fontSize=8;" vertex="1" parent="1">
          <mxGeometry x="1259.5" y="370" width="32.8" height="40" as="geometry"/>
        </mxCell>
        <mxCell id="f2JPj_Oiv7TSIDXI8G9g-142" value="" style="strokeColor=#6881B3;edgeStyle=none;rounded=0;endArrow=none;html=1;strokeWidth=1;fontSize=12;" edge="1" parent="1">
          <mxGeometry relative="1" as="geometry">
            <mxPoint x="1142" y="534" as="sourcePoint"/>
            <mxPoint x="1142" y="484" as="targetPoint"/>
          </mxGeometry>
        </mxCell>
        <mxCell id="f2JPj_Oiv7TSIDXI8G9g-143" value="" style="aspect=fixed;perimeter=ellipsePerimeter;html=1;align=center;shadow=0;dashed=0;spacingTop=3;image;image=img/lib/active_directory/generic_server.svg;strokeColor=#6881B3;strokeWidth=1;fillColor=#99CCFF;fontSize=8;" vertex="1" parent="1">
          <mxGeometry x="1107" y="537" width="22.4" height="40" as="geometry"/>
        </mxCell>
        <mxCell id="f2JPj_Oiv7TSIDXI8G9g-144" value="" style="strokeColor=#6881B3;edgeStyle=none;rounded=0;endArrow=none;html=1;strokeWidth=1;fontSize=12;" edge="1" parent="1">
          <mxGeometry relative="1" as="geometry">
            <mxPoint x="1212" y="533" as="sourcePoint"/>
            <mxPoint x="1212" y="483" as="targetPoint"/>
            <Array as="points">
              <mxPoint x="1212" y="513"/>
            </Array>
          </mxGeometry>
        </mxCell>
        <mxCell id="f2JPj_Oiv7TSIDXI8G9g-145" value="" style="aspect=fixed;perimeter=ellipsePerimeter;html=1;align=center;shadow=0;dashed=0;spacingTop=3;image;image=img/lib/active_directory/generic_server.svg;strokeColor=#6881B3;strokeWidth=1;fillColor=#99CCFF;fontSize=8;" vertex="1" parent="1">
          <mxGeometry x="1122.5" y="537" width="22.4" height="40" as="geometry"/>
        </mxCell>
        <mxCell id="f2JPj_Oiv7TSIDXI8G9g-146" value="" style="strokeColor=#6881B3;edgeStyle=none;rounded=0;endArrow=none;html=1;strokeWidth=1;fontSize=12;" edge="1" parent="1">
          <mxGeometry relative="1" as="geometry">
            <mxPoint x="1285" y="534" as="sourcePoint"/>
            <mxPoint x="1285" y="484" as="targetPoint"/>
            <Array as="points">
              <mxPoint x="1285" y="514"/>
            </Array>
          </mxGeometry>
        </mxCell>
        <mxCell id="f2JPj_Oiv7TSIDXI8G9g-147" value="" style="aspect=fixed;perimeter=ellipsePerimeter;html=1;align=center;shadow=0;dashed=0;spacingTop=3;image;image=img/lib/active_directory/generic_server.svg;strokeColor=#6881B3;strokeWidth=1;fillColor=#99CCFF;fontSize=8;" vertex="1" parent="1">
          <mxGeometry x="1137" y="537" width="22.4" height="40" as="geometry"/>
        </mxCell>
        <mxCell id="f2JPj_Oiv7TSIDXI8G9g-148" value="" style="strokeColor=#6881B3;edgeStyle=none;rounded=0;endArrow=none;html=1;strokeWidth=1;fontSize=12;" edge="1" parent="1">
          <mxGeometry relative="1" as="geometry">
            <mxPoint x="1353.5" y="534" as="sourcePoint"/>
            <mxPoint x="1353.5" y="484" as="targetPoint"/>
            <Array as="points">
              <mxPoint x="1353.5" y="514"/>
            </Array>
          </mxGeometry>
        </mxCell>
        <mxCell id="f2JPj_Oiv7TSIDXI8G9g-149" value="" style="aspect=fixed;perimeter=ellipsePerimeter;html=1;align=center;shadow=0;dashed=0;spacingTop=3;image;image=img/lib/active_directory/generic_server.svg;strokeColor=#6881B3;strokeWidth=1;fillColor=#99CCFF;fontSize=8;" vertex="1" parent="1">
          <mxGeometry x="1152.5" y="537" width="22.4" height="40" as="geometry"/>
        </mxCell>
        <mxCell id="f2JPj_Oiv7TSIDXI8G9g-150" value="" style="aspect=fixed;perimeter=ellipsePerimeter;html=1;align=center;shadow=0;dashed=0;spacingTop=3;image;image=img/lib/active_directory/web_server.svg;strokeColor=#6881B3;strokeWidth=1;fillColor=#99CCFF;fontSize=12;" vertex="1" parent="1">
          <mxGeometry x="1190" y="537" width="32" height="40" as="geometry"/>
        </mxCell>
        <mxCell id="f2JPj_Oiv7TSIDXI8G9g-151" value="" style="aspect=fixed;perimeter=ellipsePerimeter;html=1;align=center;shadow=0;dashed=0;spacingTop=3;image;image=img/lib/active_directory/web_server.svg;strokeColor=#6881B3;strokeWidth=1;fillColor=#99CCFF;fontSize=12;" vertex="1" parent="1">
          <mxGeometry x="1210" y="537" width="32" height="40" as="geometry"/>
        </mxCell>
        <mxCell id="f2JPj_Oiv7TSIDXI8G9g-152" value="监控平台&lt;br&gt;服务器&lt;br&gt;(2台)" style="text;html=1;resizable=0;points=[];autosize=1;align=center;verticalAlign=top;spacingTop=-4;fontSize=10;" vertex="1" parent="1">
          <mxGeometry x="1183" y="579" width="50" height="36" as="geometry"/>
        </mxCell>
        <mxCell id="f2JPj_Oiv7TSIDXI8G9g-153" value="" style="aspect=fixed;perimeter=ellipsePerimeter;html=1;align=center;shadow=0;dashed=0;spacingTop=3;image;image=img/lib/active_directory/database_server.svg;strokeColor=#6881B3;strokeWidth=1;fillColor=#99CCFF;fontSize=8;" vertex="1" parent="1">
          <mxGeometry x="1251" y="537" width="32.8" height="40" as="geometry"/>
        </mxCell>
        <mxCell id="f2JPj_Oiv7TSIDXI8G9g-154" value="" style="aspect=fixed;perimeter=ellipsePerimeter;html=1;align=center;shadow=0;dashed=0;spacingTop=3;image;image=img/lib/active_directory/database_server.svg;strokeColor=#6881B3;strokeWidth=1;fillColor=#99CCFF;fontSize=8;" vertex="1" parent="1">
          <mxGeometry x="1270" y="537" width="32.8" height="40" as="geometry"/>
        </mxCell>
        <mxCell id="f2JPj_Oiv7TSIDXI8G9g-155" value="" style="aspect=fixed;perimeter=ellipsePerimeter;html=1;align=center;shadow=0;dashed=0;spacingTop=3;image;image=img/lib/active_directory/database_server.svg;strokeColor=#6881B3;strokeWidth=1;fillColor=#99CCFF;fontSize=8;" vertex="1" parent="1">
          <mxGeometry x="1288" y="537" width="32.8" height="40" as="geometry"/>
        </mxCell>
        <mxCell id="f2JPj_Oiv7TSIDXI8G9g-156" value="监控平台&lt;br&gt;PG数据库&lt;br&gt;(3台)" style="text;html=1;resizable=0;points=[];autosize=1;align=center;verticalAlign=top;spacingTop=-4;fontSize=10;" vertex="1" parent="1">
          <mxGeometry x="1252.5" y="579" width="54" height="36" as="geometry"/>
        </mxCell>
        <mxCell id="f2JPj_Oiv7TSIDXI8G9g-157" value="" style="aspect=fixed;perimeter=ellipsePerimeter;html=1;align=center;shadow=0;dashed=0;spacingTop=3;image;image=img/lib/active_directory/generic_server.svg;strokeColor=#6881B3;strokeWidth=1;fillColor=#99CCFF;fontSize=8;" vertex="1" parent="1">
          <mxGeometry x="1333" y="537" width="22.4" height="40" as="geometry"/>
        </mxCell>
        <mxCell id="f2JPj_Oiv7TSIDXI8G9g-158" value="" style="aspect=fixed;perimeter=ellipsePerimeter;html=1;align=center;shadow=0;dashed=0;spacingTop=3;image;image=img/lib/active_directory/generic_server.svg;strokeColor=#6881B3;strokeWidth=1;fillColor=#99CCFF;fontSize=8;" vertex="1" parent="1">
          <mxGeometry x="1351.5" y="537" width="22.4" height="40" as="geometry"/>
        </mxCell>
        <mxCell id="f2JPj_Oiv7TSIDXI8G9g-159" value="监控内存、消息、&lt;br&gt;jstorm服务器&lt;br&gt;(2台)" style="text;html=1;resizable=0;points=[];autosize=1;align=center;verticalAlign=top;spacingTop=-4;fontSize=10;" vertex="1" parent="1">
          <mxGeometry x="1313" y="579" width="90" height="36" as="geometry"/>
        </mxCell>
        <mxCell id="f2JPj_Oiv7TSIDXI8G9g-160" value="" style="strokeColor=#6881B3;edgeStyle=none;rounded=0;endArrow=none;html=1;strokeWidth=1;fontSize=12;" edge="1" parent="1">
          <mxGeometry relative="1" as="geometry">
            <mxPoint x="1325" y="427" as="sourcePoint"/>
            <mxPoint x="1325" y="469.92857142857156" as="targetPoint"/>
          </mxGeometry>
        </mxCell>
        <mxCell id="f2JPj_Oiv7TSIDXI8G9g-161" value="区块链代理&lt;br&gt;(2台)" style="text;html=1;resizable=0;points=[];autosize=1;align=center;verticalAlign=top;spacingTop=-4;fontSize=10;fillColor=#DAE8FC;" vertex="1" parent="1">
          <mxGeometry x="1296" y="413" width="60" height="24" as="geometry"/>
        </mxCell>
        <mxCell id="f2JPj_Oiv7TSIDXI8G9g-162" value="" style="aspect=fixed;perimeter=ellipsePerimeter;html=1;align=center;shadow=0;dashed=0;spacingTop=3;image;image=img/lib/active_directory/web_server.svg;strokeColor=#6881B3;strokeWidth=1;fillColor=#99CCFF;fontSize=12;" vertex="1" parent="1">
          <mxGeometry x="1310.5" y="373" width="32" height="40" as="geometry"/>
        </mxCell>
        <mxCell id="f2JPj_Oiv7TSIDXI8G9g-163" value="" style="aspect=fixed;perimeter=ellipsePerimeter;html=1;align=center;shadow=0;dashed=0;spacingTop=3;image;image=img/lib/active_directory/web_server.svg;strokeColor=#6881B3;strokeWidth=1;fillColor=#99CCFF;fontSize=12;" vertex="1" parent="1">
          <mxGeometry x="1329" y="373" width="32" height="40" as="geometry"/>
        </mxCell>
      </root>
    </mxGraphModel>
  </diagram>
</mxfile>
